<svg xmlns="http://www.w3.org/2000/svg" viewBox="0 0 1024 1024"><defs><style>.cls-1{fill:#292929;}.cls-2{fill:#fcfcfc;}.cls-3{fill:#fff;}.cls-4{fill:#076DB5;}</style></defs><title>Exportar</title><g id="Circulo"><path class="cls-1" d="M543.93,1C542.92,9.36,529,16,512,16S481.08,9.36,480.07,1C212.17,17.47,0,240,0,512c0,282.77,229.23,512,512,512s512-229.23,512-512C1024,240,811.83,17.47,543.93,1Z"/></g><g id="Patas"><path class="cls-2" d="M923.82,485a31.83,31.83,0,0,1-18.72-6.07C790.18,395.89,654.25,352,512,352S233.82,395.89,118.9,478.92a32,32,0,1,1-37.48-51.87,735.17,735.17,0,0,1,861.16,0A32,32,0,0,1,923.82,485Z"/><path class="cls-2" d="M915.62,645.08a31.89,31.89,0,0,1-22.42-9.17,543.46,543.46,0,0,0-762.4,0A32,32,0,0,1,86,590.25a607.46,607.46,0,0,1,852.1,0,32,32,0,0,1-22.43,54.83Z"/><path class="cls-3" d="M859.35,773a32,32,0,0,1-24.82-11.77,416,416,0,0,0-645.06,0,32,32,0,1,1-49.59-40.46C231.53,608.44,367.16,544,512,544s280.47,64.44,372.12,176.8A32,32,0,0,1,859.35,773Z"/><path class="cls-3" d="M771.71,869a32,32,0,0,1-26-13.28,290.7,290.7,0,0,0-100.42-87.09,288.56,288.56,0,0,0-266.62,0,290.7,290.7,0,0,0-100.42,87.09,32,32,0,0,1-51.91-37.45,351.92,351.92,0,0,1,571.28,0A32,32,0,0,1,771.71,869Z"/></g><g id="Cuerpo"><circle class="cls-3" cx="512" cy="512" r="256"/><circle class="cls-4" cx="512" cy="512" r="192"/><path class="cls-2" d="M544,1q-15.87-1-32-1T480,1V283.6h64Z"/><circle class="cls-3" cx="448" cy="640" r="32"/><circle class="cls-3" cx="576" cy="640" r="32"/></g></svg>