<?xml version="1.0" standalone="no"?>
<!DOCTYPE svg PUBLIC "-//W3C//DTD SVG 20010904//EN"
 "http://www.w3.org/TR/2001/REC-SVG-20010904/DTD/svg10.dtd">
<svg version="1.0" xmlns="http://www.w3.org/2000/svg"
 width="1280.000000pt" height="1280.000000pt" viewBox="0 0 1280.000000 1280.000000"
 preserveAspectRatio="xMidYMid meet">
<metadata>
Created by potrace 1.11, written by Peter Selinger 2001-2013
</metadata>
<g transform="translate(0.000000,1280.000000) scale(0.100000,-0.100000)"
fill="#000000" stroke="none">
<path d="M5835 12774 c-1350 -122 -2581 -644 -3625 -1538 -135 -115 -530 -510
-646 -646 -358 -417 -634 -828 -874 -1305 -243 -480 -414 -954 -529 -1462
-327 -1451 -145 -2967 514 -4284 320 -637 723 -1190 1241 -1699 430 -423 870
-753 1379 -1035 814 -451 1653 -703 2625 -787 186 -16 772 -16 960 0 1156 99
2155 446 3093 1074 523 350 1037 824 1429 1320 490 618 827 1240 1074 1983
529 1596 402 3362 -351 4866 -498 993 -1250 1844 -2180 2466 -822 550 -1765
900 -2755 1022 -91 11 -205 23 -255 26 -49 4 -100 8 -112 11 l-23 4 0 -1605
c0 -1276 3 -1606 13 -1609 6 -2 61 -12 122 -21 403 -62 839 -232 1215 -474 84
-55 118 -71 170 -81 36 -6 146 -31 245 -55 1069 -261 2060 -698 2975 -1313
229 -155 295 -206 331 -258 55 -80 73 -138 73 -239 1 -81 -2 -97 -31 -157 -42
-90 -110 -160 -192 -201 -61 -30 -72 -32 -171 -32 -127 0 -159 13 -325 130
-469 330 -976 614 -1501 841 -193 83 -485 197 -490 191 -2 -2 22 -60 55 -128
126 -268 218 -553 265 -829 6 -34 10 -37 172 -114 680 -326 1382 -815 1920
-1339 136 -132 176 -192 194 -298 30 -172 -66 -351 -230 -428 -49 -23 -67 -26
-165 -26 -151 0 -183 16 -368 190 -333 311 -671 576 -1032 805 -155 99 -457
272 -463 265 -2 -2 -13 -57 -23 -121 -28 -169 -71 -343 -129 -513 -27 -82 -50
-152 -50 -154 0 -3 39 -29 88 -57 393 -235 778 -532 1111 -855 165 -161 394
-411 479 -524 153 -203 85 -490 -144 -602 -54 -27 -81 -33 -148 -37 -149 -8
-240 35 -355 168 -307 356 -565 602 -886 845 -210 158 -531 363 -545 348 -4
-4 -45 -55 -91 -113 -84 -106 -305 -335 -413 -427 l-58 -50 113 -62 c527 -292
1010 -710 1373 -1189 91 -121 120 -176 136 -259 33 -166 -64 -350 -225 -429
-55 -26 -69 -29 -165 -29 -88 0 -113 4 -155 23 -87 40 -125 73 -213 187 -373
481 -799 834 -1307 1080 -82 40 -211 96 -286 125 l-136 52 -114 -40 c-644
-226 -1383 -229 -2054 -8 l-139 46 -111 -41 c-636 -239 -1197 -660 -1619
-1216 -85 -112 -118 -141 -204 -181 -50 -24 -69 -27 -162 -27 -95 0 -111 3
-162 28 -194 95 -282 312 -208 509 37 99 272 389 500 618 298 300 600 531 953
730 l149 84 -59 49 c-104 89 -327 320 -413 427 -46 58 -86 109 -90 113 -13 15
-336 -192 -545 -349 -317 -238 -546 -455 -855 -808 -151 -173 -226 -212 -385
-204 -205 11 -362 168 -373 374 -8 141 17 194 187 393 397 468 924 914 1459
1235 61 37 112 70 112 74 0 4 -18 59 -41 122 -55 156 -104 347 -133 518 -13
79 -26 145 -28 147 -2 3 -73 -35 -158 -83 -486 -275 -909 -587 -1335 -985
-150 -140 -197 -169 -300 -185 -266 -42 -501 194 -455 457 18 102 58 166 179
283 548 532 1300 1053 1964 1362 123 58 127 60 133 95 46 271 139 561 265 830
33 68 58 126 56 127 -7 7 -300 -107 -527 -206 -498 -217 -1007 -503 -1450
-815 -150 -105 -198 -130 -277 -145 -238 -43 -463 147 -463 390 0 156 58 254
218 368 979 699 2132 1216 3294 1476 188 43 200 47 270 94 364 245 784 410
1233 487 l130 22 3 1606 c1 884 -1 1606 -5 1606 -5 -1 -75 -7 -158 -15z"/>
<path d="M6205 8790 c-581 -52 -1102 -296 -1507 -707 -132 -133 -196 -211
-296 -362 -206 -308 -334 -655 -383 -1041 -16 -122 -16 -438 0 -560 49 -385
176 -729 381 -1038 103 -155 169 -235 298 -365 375 -380 845 -615 1387 -693
176 -26 477 -23 660 5 362 55 686 179 982 377 493 329 843 821 993 1394 98
373 99 814 4 1185 -245 962 -1051 1673 -2033 1794 -124 16 -371 21 -486 11z
m-442 -3622 c79 -37 160 -116 200 -197 30 -61 32 -72 32 -171 0 -93 -3 -111
-27 -163 -38 -80 -117 -160 -197 -200 -61 -30 -72 -32 -171 -32 -98 0 -109 2
-171 32 -80 39 -159 120 -197 200 -24 52 -27 70 -27 163 0 93 3 112 27 162 47
101 147 190 251 224 70 23 210 14 280 -18z m1600 0 c79 -37 160 -116 200 -197
30 -61 32 -72 32 -171 0 -93 -3 -111 -27 -163 -38 -80 -117 -160 -197 -200
-61 -30 -72 -32 -171 -32 -98 0 -109 2 -171 32 -80 39 -159 120 -197 200 -24
52 -27 70 -27 163 0 93 3 112 27 162 47 101 147 190 251 224 70 23 210 14 280
-18z"/>
</g>
</svg>
