<?xml version="1.0" encoding="utf-8"?>
<!-- Generator: Adobe Illustrator 24.1.3, SVG Export Plug-In . SVG Version: 6.00 Build 0)  -->
<svg version="1.1" id="Layer_1" xmlns="http://www.w3.org/2000/svg" xmlns:xlink="http://www.w3.org/1999/xlink" x="0px" y="0px"
	 viewBox="0 0 3725 1024" style="enable-background:new 0 0 3725 1024;" xml:space="preserve">
<style type="text/css">
	.st0{fill:#292929;}
	.st1{fill:#FCFCFC;}
	.st2{fill:#FFFFFF;}
	.st3{fill:#0071BC;}
</style>
<g id="Circulo">
	<path class="st0" d="M543.9,0c-1,8.4-14.9,15-31.9,15s-30.9-6.6-31.9-15C212.2,16.5,0,239,0,511c0,282.8,229.2,512,512,512
		s512-229.2,512-512C1024,239,811.8,16.5,543.9,0z"/>
</g>
<g id="Patas">
	<path class="st1" d="M923.8,484c-6.7,0-13.3-2.1-18.7-6.1C790.2,394.9,654.2,351,512,351s-278.2,43.9-393.1,126.9
		c-14.2,10.5-34.2,7.6-44.8-6.6s-7.6-34.2,6.6-44.8c0.2-0.2,0.5-0.3,0.7-0.5c257-185.7,604.1-185.7,861.2,0
		c14.3,10.3,17.6,30.3,7.2,44.7C943.8,479.1,934.1,484,923.8,484z"/>
	<path class="st1" d="M915.6,644.1c-8.4,0-16.4-3.3-22.4-9.2c-211.5-208.2-550.9-208.2-762.4,0c-13,12-33.2,11.1-45.2-1.9
		c-11.4-12.4-11.3-31.6,0.4-43.8c236.4-232.6,615.7-232.6,852.1,0c12.6,12.4,12.8,32.6,0.4,45.3
		C932.5,640.6,924.3,644.1,915.6,644.1L915.6,644.1z"/>
	<path class="st2" d="M859.3,772c-9.6,0-18.7-4.3-24.8-11.8c-145.1-178.1-407.1-204.9-585.3-59.8c-21.9,17.8-41.9,37.9-59.8,59.8
		c-11.2,13.7-31.3,15.7-45,4.6s-15.7-31.3-4.6-45C231.5,607.4,367.2,543,512,543s280.5,64.4,372.1,176.8c11.2,13.7,9.1,33.9-4.6,45
		C873.8,769.5,866.7,772,859.3,772z"/>
	<path class="st2" d="M771.7,868c-10.3,0-20-4.9-26-13.3c-26.3-36.4-60.7-66.2-100.4-87.1c-83.5-43.5-183.1-43.5-266.6,0
		c-39.8,20.9-74.1,50.7-100.4,87.1c-10.3,14.3-30.3,17.6-44.7,7.2c-14.3-10.3-17.6-30.3-7.2-44.7l0,0
		c113.5-157.8,333.5-193.6,491.2-80.1c30.8,22.2,57.9,49.2,80.1,80.1c10.3,14.3,7.1,34.3-7.2,44.7C785,865.9,778.4,868,771.7,868z"
		/>
</g>
<g id="Cuerpo">
	<circle class="st2" cx="512" cy="511" r="256"/>
	<circle class="st3" cx="512" cy="511" r="192"/>
	<path class="st1" d="M544,0c-10.6-0.7-21.2-1-32-1c-10.8,0-21.4,0.3-32,1v282.6h64V0z"/>
	<circle class="st2" cx="448" cy="639" r="32"/>
	<circle class="st2" cx="576" cy="639" r="32"/>
</g>
<g>
	<path d="M1598.3,750h-43.3l-194.1-267.1l-67.5,59.5V750h-35.3V244.1h35.3v263l56.1-56.1l198.3-206.9h45l-207.3,213.8L1598.3,750z"
		/>
	<path d="M1691,373.9v243.6c0,37.8,8,65.3,23.9,82.5c15.9,17.2,40.6,25.8,74,25.8c44.8,0,77.7-11.3,98.8-33.9
		c21.1-22.6,31.7-59.4,31.7-110.4V373.9h33.9V750h-29.1l-6.2-51.9h-2.1c-24.5,39.2-67.9,58.8-130.5,58.8
		c-85.6,0-128.4-45.8-128.4-137.4V373.9H1691z"/>
	<path d="M2312.5,652.1c0,33.7-12.8,59.6-38.4,77.7c-25.6,18.1-61.9,27.2-109,27.2c-50.3,0-90.2-7.7-119.7-23.2v-37
		c37.8,18.9,77.7,28.4,119.7,28.4c37.1,0,65.3-6.2,84.6-18.5c19.3-12.3,28.9-28.8,28.9-49.3c0-18.9-7.7-34.8-23-47.8
		c-15.3-12.9-40.5-25.6-75.6-38.1c-37.6-13.6-64-25.3-79.2-35.1c-15.2-9.8-26.7-20.9-34.4-33.2c-7.7-12.3-11.6-27.4-11.6-45.2
		c0-28.1,11.8-50.4,35.5-66.8c23.6-16.4,56.7-24.6,99.1-24.6c40.6,0,79.1,7.6,115.6,22.8l-12.8,31.1
		c-36.9-15.2-71.2-22.8-102.8-22.8c-30.7,0-55,5.1-73,15.2c-18,10.2-27,24.2-27,42.2c0,19.6,7,35.3,20.9,47.1
		c14,11.8,41.2,24.9,81.8,39.4c33.9,12.2,58.6,23.2,74,33c15.5,9.8,27,20.9,34.8,33.4C2308.6,620.6,2312.5,635.2,2312.5,652.1z"/>
	<path d="M2404.5,269.4c0-22.1,7.3-33.2,21.8-33.2c7.1,0,12.7,2.9,16.8,8.7c4,5.8,6.1,14,6.1,24.6c0,10.4-2,18.6-6.1,24.6
		c-4,6-9.6,9-16.8,9C2411.8,302.9,2404.5,291.7,2404.5,269.4z M2443.6,750h-34.3V373.9h34.3V750z"/>
	<path d="M2603.2,584.9l192-211.1h41.5l-148.1,160.6L2849.5,750h-41.2l-142.9-190l-61.6,56.1V750h-34.3V211.6h34.3v269.9l-2.4,103.5
		H2603.2z"/>
	<path d="M2942.3,373.9v243.6c0,37.8,8,65.3,23.9,82.5c15.9,17.2,40.6,25.8,74,25.8c44.8,0,77.7-11.3,98.8-33.9
		c21.1-22.6,31.7-59.4,31.7-110.4V373.9h33.9V750h-29.1l-6.2-51.9h-2.1c-24.5,39.2-67.9,58.8-130.5,58.8
		c-85.6,0-128.4-45.8-128.4-137.4V373.9H2942.3z"/>
	<path d="M3563.7,652.1c0,33.7-12.8,59.6-38.4,77.7c-25.6,18.1-61.9,27.2-109,27.2c-50.3,0-90.2-7.7-119.7-23.2v-37
		c37.8,18.9,77.7,28.4,119.7,28.4c37.1,0,65.3-6.2,84.6-18.5c19.3-12.3,28.9-28.8,28.9-49.3c0-18.9-7.7-34.8-23-47.8
		c-15.3-12.9-40.5-25.6-75.6-38.1c-37.6-13.6-64-25.3-79.2-35.1c-15.2-9.8-26.7-20.9-34.4-33.2c-7.7-12.3-11.6-27.4-11.6-45.2
		c0-28.1,11.8-50.4,35.5-66.8c23.6-16.4,56.7-24.6,99.1-24.6c40.6,0,79.1,7.6,115.6,22.8l-12.8,31.1
		c-36.9-15.2-71.2-22.8-102.8-22.8c-30.7,0-55,5.1-73,15.2c-18,10.2-27,24.2-27,42.2c0,19.6,7,35.3,20.9,47.1
		c14,11.8,41.2,24.9,81.8,39.4c33.9,12.2,58.6,23.2,74,33c15.5,9.8,27,20.9,34.8,33.4C3559.9,620.6,3563.7,635.2,3563.7,652.1z"/>
	<path d="M3655.8,269.4c0-22.1,7.3-33.2,21.8-33.2c7.1,0,12.7,2.9,16.8,8.7c4,5.8,6.1,14,6.1,24.6c0,10.4-2,18.6-6.1,24.6
		c-4,6-9.6,9-16.8,9C3663,302.9,3655.8,291.7,3655.8,269.4z M3694.9,750h-34.3V373.9h34.3V750z"/>
</g>
</svg>
